<svg aria-hidden="true" style="position: absolute; width: 0; height: 0; overflow: hidden;" version="1.1" xmlns="http://www.w3.org/2000/svg" xmlns:xlink="http://www.w3.org/1999/xlink">
<defs>
<symbol id="icon-user" viewBox="0 0 32 32">
<path fill="none" stroke="#bdbdbe" style="stroke: var(--color1, #bdbdbe)" stroke-linejoin="round" stroke-linecap="round" stroke-miterlimit="4" stroke-width="3.2" d="M12.001 20.667h-2c-1.861 0-2.791 0-3.548 0.23-1.705 0.517-3.038 1.851-3.555 3.556-0.23 0.757-0.23 1.687-0.23 3.548M19.334 10c0 3.314-2.686 6-6 6s-6-2.686-6-6 2.686-6 6-6c3.314 0 6 2.686 6 6zM14.667 28l4.135-1.181c0.198-0.057 0.297-0.085 0.389-0.127 0.082-0.038 0.16-0.084 0.233-0.137 0.082-0.060 0.155-0.133 0.3-0.279l8.609-8.609c0.92-0.92 0.92-2.413 0-3.333s-2.413-0.92-3.333 0l-8.609 8.609c-0.146 0.146-0.218 0.219-0.279 0.3-0.053 0.073-0.099 0.151-0.137 0.233-0.042 0.092-0.071 0.191-0.127 0.389l-1.181 4.135z"></path>
</symbol>
<symbol id="icon-car" viewBox="0 0 32 32">
<path fill="none" stroke="#bdbdbe" style="stroke: var(--color1, #bdbdbe)" stroke-linejoin="round" stroke-linecap="round" stroke-miterlimit="4" stroke-width="3.2" d="M6.667 17.334h4M2.667 12l2.667 1.333 1.694-5.083c0.35-1.049 0.525-1.574 0.849-1.961 0.286-0.342 0.654-0.608 1.070-0.771 0.47-0.185 1.023-0.185 2.129-0.185h9.85c1.106 0 1.659 0 2.129 0.185 0.415 0.163 0.783 0.428 1.070 0.771 0.324 0.388 0.499 0.912 0.849 1.961l1.694 5.083 2.667-1.333M21.334 17.334h4M9.067 13.334h13.867c2.24 0 3.36 0 4.216 0.436 0.753 0.383 1.365 0.995 1.748 1.748 0.436 0.856 0.436 1.976 0.436 4.216v3.6c0 0.62 0 0.929-0.051 1.187-0.21 1.058-1.037 1.885-2.095 2.095-0.258 0.051-0.567 0.051-1.187 0.051h-0.667c-1.473 0-2.667-1.194-2.667-2.667 0-0.368-0.299-0.667-0.667-0.667h-12c-0.368 0-0.667 0.298-0.667 0.667 0 1.473-1.194 2.667-2.667 2.667h-0.667c-0.62 0-0.929 0-1.187-0.051-1.058-0.21-1.885-1.037-2.095-2.095-0.051-0.258-0.051-0.567-0.051-1.187v-3.6c0-2.24 0-3.36 0.436-4.216 0.384-0.753 0.995-1.365 1.748-1.748 0.856-0.436 1.976-0.436 4.216-0.436z"></path>
</symbol>
<symbol id="icon-headphones" viewBox="0 0 32 32">
<path fill="none" stroke="#bdbdbe" style="stroke: var(--color1, #bdbdbe)" stroke-linejoin="round" stroke-linecap="round" stroke-miterlimit="4" stroke-width="3.2" d="M28 24v-8c0-6.627-5.373-12-12-12s-12 5.373-12 12v8M7.333 28c-1.841 0-3.333-1.492-3.333-3.333v-2.667c0-1.841 1.492-3.333 3.333-3.333s3.333 1.492 3.333 3.333v2.667c0 1.841-1.492 3.333-3.333 3.333zM24.667 28c-1.841 0-3.333-1.492-3.333-3.333v-2.667c0-1.841 1.492-3.333 3.333-3.333s3.333 1.492 3.333 3.333v2.667c0 1.841-1.492 3.333-3.333 3.333z"></path>
</symbol>
<symbol id="icon-log-in" viewBox="0 0 32 32">
<path fill="none" stroke="#bdbdbe" style="stroke: var(--color1, #bdbdbe)" stroke-linejoin="round" stroke-linecap="round" stroke-miterlimit="4" stroke-width="2" d="M8 22.667c0 1.24 0 1.86 0.136 2.369 0.37 1.38 1.448 2.459 2.828 2.828 0.509 0.136 1.129 0.136 2.369 0.136h8.267c2.24 0 3.36 0 4.216-0.436 0.753-0.383 1.365-0.995 1.748-1.748 0.436-0.856 0.436-1.976 0.436-4.216v-11.2c0-2.24 0-3.36-0.436-4.216-0.383-0.753-0.995-1.365-1.748-1.748-0.856-0.436-1.976-0.436-4.216-0.436h-8.267c-1.24 0-1.86 0-2.369 0.136-1.38 0.37-2.459 1.448-2.828 2.828-0.136 0.509-0.136 1.129-0.136 2.369M16 10.667l5.333 5.333M21.333 16l-5.333 5.333M21.333 16h-17.333"></path>
</symbol>
<symbol id="icon-modal" viewBox="0 0 32 32">
<path fill="none" stroke="#bdbdbe" style="stroke: var(--color1, #ffffff)" stroke-linejoin="round" stroke-linecap="round" stroke-miterlimit="4" stroke-width="2" d="M8 22.667c0 1.24 0 1.86 0.136 2.369 0.37 1.38 1.448 2.459 2.828 2.828 0.509 0.136 1.129 0.136 2.369 0.136h8.267c2.24 0 3.36 0 4.216-0.436 0.753-0.383 1.365-0.995 1.748-1.748 0.436-0.856 0.436-1.976 0.436-4.216v-11.2c0-2.24 0-3.36-0.436-4.216-0.383-0.753-0.995-1.365-1.748-1.748-0.856-0.436-1.976-0.436-4.216-0.436h-8.267c-1.24 0-1.86 0-2.369 0.136-1.38 0.37-2.459 1.448-2.828 2.828-0.136 0.509-0.136 1.129-0.136 2.369M16 10.667l5.333 5.333M21.333 16l-5.333 5.333M21.333 16h-17.333"></path>
</symbol>
<symbol id="icon-phone" viewBox="0 0 32 32">
<path fill="none" stroke="#bdbdbe" style="stroke: var(--color1, #bdbdbe)" stroke-linejoin="round" stroke-linecap="round" stroke-miterlimit="4" stroke-width="2" d="M11.174 11.804c0.928 1.933 2.193 3.744 3.795 5.346s3.414 2.867 5.347 3.795c0.166 0.080 0.249 0.12 0.355 0.15 0.374 0.109 0.833 0.031 1.149-0.196 0.089-0.064 0.165-0.14 0.318-0.292 0.466-0.466 0.699-0.699 0.934-0.852 0.884-0.575 2.023-0.575 2.907 0 0.234 0.152 0.467 0.385 0.934 0.852l0.26 0.26c0.709 0.709 1.063 1.063 1.255 1.443 0.383 0.757 0.383 1.65 0 2.407-0.192 0.38-0.547 0.735-1.255 1.443l-0.21 0.21c-0.706 0.706-1.059 1.059-1.539 1.329-0.533 0.299-1.36 0.514-1.971 0.513-0.551-0.002-0.927-0.108-1.679-0.322-4.045-1.148-7.861-3.314-11.045-6.498s-5.35-7.001-6.498-11.045c-0.214-0.753-0.32-1.129-0.322-1.679-0.002-0.611 0.213-1.438 0.513-1.971 0.27-0.48 0.623-0.833 1.329-1.539l0.21-0.21c0.709-0.709 1.063-1.063 1.443-1.255 0.757-0.383 1.65-0.383 2.407 0 0.38 0.192 0.735 0.547 1.443 1.255l0.26 0.26c0.466 0.466 0.699 0.699 0.852 0.934 0.575 0.884 0.575 2.023 0 2.907-0.152 0.234-0.385 0.467-0.852 0.934-0.152 0.152-0.229 0.229-0.292 0.318-0.227 0.317-0.305 0.776-0.196 1.149 0.031 0.105 0.071 0.188 0.15 0.355z"></path>
</symbol>
<symbol id="icon-arrow-up" viewBox="0 0 32 32">
<path fill="none" stroke="#e9e9e9" style="stroke: var(--color2, #e9e9e9)" stroke-linejoin="round" stroke-linecap="round" stroke-miterlimit="4" stroke-width="2.6667" d="M24 20l-8-8-8 8"></path>
</symbol>
<symbol id="icon-arrow-down" viewBox="0 0 32 32">
<path fill="none" stroke="#919192" style="stroke: var(--color3, #919192)" stroke-linejoin="round" stroke-linecap="round" stroke-miterlimit="4" stroke-width="2.6667" d="M8 12l8 8 8-8"></path>
</symbol>
<symbol id="icon-flag-cr" viewBox="0 0 32 32">
<path fill="#eee" style="fill: var(--color4, #eee)" d="M0 11.466h32v9.067h-32v-9.067z"></path>
<path fill="#171796" style="fill: var(--color5, #171796)" d="M32 24c0 0.943-0.375 1.847-1.041 2.514s-1.571 1.041-2.514 1.041h-24.889c-0.943 0-1.847-0.375-2.514-1.041s-1.041-1.571-1.041-2.514v-3.556h32v3.556z"></path>
<path fill="#d52b1e" style="fill: var(--color6, #d52b1e)" d="M28.444 4.445h-24.889c-0.943 0-1.847 0.375-2.514 1.041s-1.041 1.571-1.041 2.514v3.556h32v-3.556c0-0.943-0.375-1.847-1.041-2.514s-1.571-1.041-2.514-1.041z"></path>
<path fill="#d52b1e" style="fill: var(--color6, #d52b1e)" d="M10.141 6.61v10.252c0 1.554 0.617 3.044 1.716 4.143s2.589 1.716 4.143 1.716c1.554 0 3.044-0.617 4.143-1.716s1.716-2.589 1.716-4.143v-10.252h-11.717z"></path>
<path fill="#fff" style="fill: var(--color7, #fff)" d="M12.667 16h2.222v2.222h-2.222v-2.222zM14.889 18.222h2.222v2.222h-2.222v-2.222zM14.889 13.778h2.222v2.222h-2.222v-2.222zM17.111 16h2.222v2.222h-2.222v-2.222zM17.111 11.555h2.222v2.222h-2.222v-2.222zM19.333 13.778h2.081v2.222h-2.081v-2.222zM12.667 11.555h2.222v2.222h-2.222v-2.222zM19.333 20.444h0.716c0.564-0.637 0.97-1.399 1.186-2.222h-1.901v2.222zM17.111 20.444v1.716c0.811-0.173 1.571-0.529 2.222-1.041v-0.676h-2.222zM12.667 20.444v-2.222h-1.901c0.215 0.824 0.622 1.585 1.186 2.222h0.716zM10.586 13.778h2.081v2.222h-2.081v-2.222zM12.667 20.444v0.676c0.651 0.512 1.412 0.868 2.222 1.041v-1.716h-2.222z"></path>
<path fill="#171796" style="fill: var(--color5, #171796)" d="M22.006 7.236l-1.776 0.703-1.18-1.495-1.626 1.001-1.424-1.268-1.425 1.269-1.623-1.003-1.183 1.497-1.773-0.705-0.997 1.849 1.183 2.544 0.156-0.073c0.693-0.323 1.425-0.588 2.172-0.789l0.036-0.010c0.735-0.197 1.485-0.332 2.243-0.401l0.057-0.005c0.627-0.053 1.685-0.053 2.312 0l0.052 0.004c0.732 0.066 1.492 0.201 2.254 0.403l0.029 0.008c0.743 0.2 1.474 0.466 2.17 0.79l0.156 0.073 1.183-2.543-0.994-1.849z"></path>
<path fill="#0193dd" style="fill: var(--color8, #0193dd)" d="M14.789 7.716l0.196 2.278c0.293-0.023 0.648-0.045 1.014-0.045s0.721 0.022 1.014 0.045l0.196-2.278-1.211-1.078-1.211 1.078zM21.848 7.669l-1.509 0.598-0.594 2.212c0.65 0.183 1.289 0.416 1.906 0.692l0.965-2.076-0.768-1.427zM10.153 7.668l-0.77 1.428 0.966 2.076c0.613-0.276 1.252-0.508 1.906-0.692l-0.596-2.213-1.507-0.598z"></path>
</symbol>
<symbol id="icon-flag-en" viewBox="0 0 32 32">
<path fill="#00247d" style="fill: var(--color9, #00247d)" d="M0 8.053v3.503h5.003l-5.003-3.503zM4.146 27.556h7.41v-5.188l-7.41 5.188zM20.444 22.368v5.188h7.409l-7.409-5.188zM0 20.444v3.503l5.004-3.503h-5.004zM27.855 4.445h-7.411v5.188l7.411-5.188zM32 23.948v-3.504h-5.005l5.005 3.504zM32 11.556v-3.503l-5.004 3.503h5.004zM11.556 4.445h-7.41l7.41 5.188v-5.188z"></path>
<path fill="#cf1b2b" style="fill: var(--color10, #cf1b2b)" d="M22.346 20.445l8.633 6.045c0.421-0.435 0.724-0.97 0.88-1.555l-6.413-4.491h-3.1zM11.555 20.445h-1.903l-8.632 6.044c0.463 0.471 1.057 0.808 1.723 0.964l8.812-6.171v-0.838zM20.444 11.556h1.903l8.632-6.044c-0.471-0.478-1.068-0.812-1.722-0.964l-8.813 6.171v0.838zM9.652 11.556l-8.632-6.044c-0.421 0.435-0.724 0.97-0.881 1.555l6.413 4.49h3.1z"></path>
<path fill="#eee" style="fill: var(--color4, #eee)" d="M32 18.667h-13.333v8.889h1.778v-5.188l7.409 5.188h0.591c0.472-0 0.94-0.095 1.375-0.278s0.83-0.451 1.16-0.788l-8.633-6.045h3.1l6.413 4.491c0.083-0.3 0.14-0.61 0.14-0.935v-0.052l-5.005-3.504h5.005v-1.778zM0 18.667v1.778h5.004l-5.004 3.503v0.052c0 0.97 0.39 1.847 1.020 2.489l8.632-6.044h1.903v0.838l-8.812 6.17c0.261 0.062 0.532 0.103 0.812 0.103h0.59l7.41-5.188v5.188h1.778v-8.889h-13.333zM32 8c0.001-0.932-0.366-1.826-1.020-2.489l-8.632 6.044h-1.903v-0.838l8.813-6.171c-0.266-0.065-0.539-0.1-0.813-0.102h-0.589l-7.411 5.188v-5.188h-1.778v8.889h13.333v-1.778h-5.004l5.004-3.503v-0.052zM11.556 4.445v5.188l-7.41-5.188h-0.59c-0.472 0.001-0.94 0.095-1.375 0.278s-0.83 0.451-1.16 0.788l8.632 6.044h-3.1l-6.413-4.49c-0.088 0.304-0.135 0.618-0.14 0.934v0.052l5.003 3.503h-5.003v1.778h13.333v-8.889h-1.778z"></path>
<path fill="#cf1b2b" style="fill: var(--color10, #cf1b2b)" d="M18.667 13.333v-8.889h-5.333v8.889h-13.333v5.333h13.333v8.889h5.333v-8.889h13.333v-5.333h-13.333z"></path>
</symbol>
<symbol id="icon-flags-uk" viewBox="0 0 32 32">
<path fill="#005bbb" style="fill: var(--color11, #005bbb)" d="M28.444 4.445h-24.889c-0.943 0-1.847 0.375-2.514 1.041s-1.041 1.571-1.041 2.514v8h32v-8c0-0.943-0.375-1.847-1.041-2.514s-1.571-1.041-2.514-1.041z"></path>
<path fill="#ffd500" style="fill: var(--color12, #ffd500)" d="M32 24c0 0.943-0.375 1.847-1.041 2.514s-1.571 1.041-2.514 1.041h-24.889c-0.943 0-1.847-0.375-2.514-1.041s-1.041-1.571-1.041-2.514v-8h32v8z"></path>
</symbol>
<symbol id="icon-logo" viewBox="0 0 267 32">
<path fill="#fefeff" style="fill: var(--color13, #fefeff)" d="M101.147 9.953h-23.578v4.321h23.578c-0.055 0.17 0.171 0.374 0.171 0.433v6.911c0 0.017-0.239 0.26-0.256 0.26h-23.493v4.321h23.578v7.775h-31.097c0.055-0.17-0.171-0.375-0.171-0.433v-30.932c0-0.017 0.239-0.26 0.257-0.26h30.926c0.017 0 0.256 0.239 0.256 0.26v6.911c0 0.056-0.226 0.264-0.171 0.433z"></path>
<path fill="#fefeff" style="fill: var(--color13, #fefeff)" d="M262.185 2.349c1.655 0.236 3.655 2.157 4.137 3.762 0.444 1.477 0.404 9.207 0.201 10.993-0.238 2.098-2.283 4.401-4.379 4.73-0.626 0.097-1.269-0.042-1.844 0.042-0.236 0.035-0.293-0.097-0.252 0.26l5.98 11.839h-7.947l-6.663-12.095h-7.605v11.665c0 0.055-0.226 0.264-0.171 0.433h-7.348v-31.629h25.89zM259.022 9.953h-15.205v4.321h15.205v-4.321z"></path>
<path fill="#fefeff" style="fill: var(--color13, #fefeff)" d="M187.945 12.717h-7.348v-2.764h-17.257v16.243h17.257v-2.764h7.348c0.636 4.421 0.331 9.834-5.061 10.521-6.964-0.333-14.441 0.517-21.345 0.028-3.511-0.246-5.501-2.462-5.724-5.961-0.427-6.672 0.318-13.826 0.031-20.55 0.239-2.531 2.267-4.889 4.842-5.125 7.159-0.662 15.304 0.517 22.566 0 5.074 0.843 5.292 6.173 4.692 10.375v-0.003z"></path>
<path fill="#fefeff" style="fill: var(--color13, #fefeff)" d="M31.268 9.953h-23.749v4.321h23.749c-0.055 0.17 0.171 0.374 0.171 0.433v6.911c0 0.017-0.239 0.26-0.257 0.26h-23.407c-0.017 0-0.256 0.239-0.256 0.26v11.835h-7.262c-0.017 0-0.256-0.239-0.256-0.26v-31.105c0-0.017 0.239-0.26 0.256-0.26h30.926c0.017 0 0.257 0.239 0.257 0.26v6.911c0 0.056-0.226 0.264-0.171 0.433z"></path>
<path fill="#fefeff" style="fill: var(--color13, #fefeff)" d="M115.501 2.349c2.075 3.395 4.407 6.637 6.749 9.845l7.006-9.845h8.972l-10.709 15.809 10.709 15.813h-8.972l-7.006-10.018-7.006 10.018h-8.715c-0.021 0-0.342-0.25-0.174-0.343l10.654-15.608-10.736-15.671h9.228z"></path>
<path fill="#fefeff" style="fill: var(--color13, #fefeff)" d="M193.326 33.971l14.176-31.456 8.555-0.18 0.267 0.121 14.773 31.164c0.151 0.108-0.16 0.354-0.185 0.354h-7.945l-11.020-22.637-10.677 22.637-7.943-0.004z"></path>
<path fill="#fefeff" style="fill: var(--color13, #fefeff)" d="M43.912 2.349v23.847h20.761c0.017 0 0.257 0.239 0.257 0.26v7.258c0 0.017-0.239 0.26-0.257 0.26h-28.276v-31.626h7.515z"></path>
<path fill="#fefeff" style="fill: var(--color13, #fefeff)" d="M143.35 33.971v-31.622h7.262c0.017 0 0.256 0.239 0.256 0.26v31.102c0 0.017-0.239 0.26-0.256 0.26h-7.262z"></path>
</symbol>
</defs>
</svg>
